<?xml version="1.0" standalone="no"?>
<!DOCTYPE svg PUBLIC "-//W3C//DTD SVG 20010904//EN"
 "http://www.w3.org/TR/2001/REC-SVG-20010904/DTD/svg10.dtd">
<svg version="1.0" xmlns="http://www.w3.org/2000/svg"
 width="400.000000pt" height="400.000000pt" viewBox="0 0 400.000000 400.000000"
 preserveAspectRatio="xMidYMid meet">
<metadata>
Created by potrace 1.11, written by Peter Selinger 2001-2013
</metadata>
<g transform="translate(0.000000,400.000000) scale(0.100000,-0.100000)"
fill="#000000" stroke="none">
<path d="M0 2000 l0 -2000 611 0 610 0 -3 188 -3 187 90 0 90 0 3 -188 2 -187
210 0 210 0 0 388 c0 288 -3 391 -12 400 -8 8 -67 12 -200 12 -143 0 -188 3
-189 13 -11 108 -19 988 -11 1292 l7 280 184 3 c115 1 189 7 198 13 10 9 13
56 13 200 l0 189 600 0 c473 0 600 -3 601 -12 5 -119 -3 -1183 -10 -1187 -5
-3 -87 -5 -183 -5 -95 1 -180 0 -189 -2 -15 -4 -18 -46 -24 -394 l-8 -390
-196 -2 -196 -3 -3 -398 -2 -397 110 0 110 0 0 90 0 90 90 0 90 0 0 -90 0 -90
700 0 700 0 0 2000 0 2000 -2000 0 -2000 0 0 -2000z m1598 -1507 l-3 -88 -90
0 -90 0 0 80 c-1 44 1 83 3 88 2 4 44 7 93 7 l90 0 -3 -87z m1002 -3 l0 -90
-90 0 -90 0 0 90 0 90 90 0 90 0 0 -90z m200 -200 l0 -90 -90 0 -90 0 0 90 0
90 90 0 90 0 0 -90z"/>
</g>
</svg>
